<svg width="20" height="20" viewBox="0 0 20 20" fill="none" xmlns="http://www.w3.org/2000/svg">
<path fill-rule="evenodd" clip-rule="evenodd" d="M3.5295 2.68833C3.4515 2.23475 3.02057 1.93028 2.56699 2.00828C2.11341 2.08629 1.80894 2.51722 1.88695 2.9708L2.72365 7.83611C2.80165 8.28969 3.23258 8.59416 3.68616 8.51615L8.55148 7.67946C9.00505 7.60145 9.30952 7.17052 9.23152 6.71694C9.15351 6.26336 8.72258 5.9589 8.269 6.0369L5.10739 6.58061C6.18363 5.11826 7.93143 4.16592 9.90856 4.16592C13.1914 4.16592 15.8332 6.78825 15.8332 9.99925C15.8332 13.2103 13.1914 15.8326 9.90856 15.8326C7.1024 15.8326 4.76048 13.9138 4.14341 11.3503C4.0357 10.9028 3.58565 10.6274 3.1382 10.7351C2.69074 10.8428 2.41532 11.2929 2.52303 11.7404C3.31963 15.0496 6.32908 17.4993 9.90856 17.4993C14.0904 17.4993 17.4999 14.152 17.4999 9.99925C17.4999 5.84646 14.0904 2.49925 9.90856 2.49925C7.51228 2.49925 5.3725 3.59725 3.98094 5.31337L3.5295 2.68833Z" fill="#0B435B"/>
</svg>
