<svg width="16" height="17" viewBox="0 0 16 17" fill="none" xmlns="http://www.w3.org/2000/svg">
<g id="Share">
<path id="Union" fill-rule="evenodd" clip-rule="evenodd" d="M2.66659 4.50065C2.66659 3.76427 3.26354 3.16732 3.99992 3.16732H8.33325C8.70144 3.16732 8.99992 2.86884 8.99992 2.50065C8.99992 2.13246 8.70144 1.83398 8.33325 1.83398H3.99992C2.52716 1.83398 1.33325 3.02789 1.33325 4.50065V12.5007C1.33325 13.9734 2.52716 15.1673 3.99992 15.1673H11.9999C13.4727 15.1673 14.6666 13.9734 14.6666 12.5007V10.834C14.6666 10.4658 14.3681 10.1673 13.9999 10.1673C13.6317 10.1673 13.3333 10.4658 13.3333 10.834V12.5007C13.3333 13.237 12.7363 13.834 11.9999 13.834H3.99992C3.26354 13.834 2.66659 13.237 2.66659 12.5007V4.50065ZM10.8052 4.16732H11.1838V2.22183C11.1838 1.93764 11.5167 1.78379 11.7331 1.96794L15.3921 5.0805C15.5401 5.2064 15.5495 5.43171 15.4125 5.56947L11.7535 9.24795C11.5438 9.4588 11.1838 9.31028 11.1838 9.01288V7.15399C8.97612 7.15399 8.19185 7.15399 6.68314 9.18681C6.4704 9.47345 5.99992 9.32957 5.99992 8.97261C5.99992 6.31872 8.15132 4.16732 10.8052 4.16732Z" fill="white"/>
</g>
</svg>
